<svg xmlns="http://www.w3.org/2000/svg" width="1000" height="1000"><rect width="100%" height="100%" fill="rgba(102,51,102,0.02)"/><path style="is-custom-font:none;font-file-url:none" vector-effect="non-scaling-stroke" transform="matrix(10.8594 0 0 6.3302 -4.963 3.08)" d="M2.617 78.5c0-21.266 5.122-40.436 13.26-54.205C24.047 10.466 34.966 2.5 46.5 2.5c11.534 0 22.452 7.966 30.624 21.795 8.137 13.769 13.26 32.94 13.26 54.205 0 21.266-5.123 40.436-13.26 54.205C68.952 146.533 58.034 154.5 46.5 154.5c-11.534 0-22.452-7.967-30.624-21.795C7.74 118.936 2.616 99.765 2.616 78.5z" stroke="#fff" stroke-width="5" fill="none"/><path style="is-custom-font:none;font-file-url:none" d="M243.867 198.52c.544 0 1.02.212 1.41.637l3.93 4.262a21.492 21.492 0 01-8.022 6.18c-3.176 1.435-6.988 2.157-11.436 2.157-3.973 0-7.548-.68-10.723-2.038-3.175-1.358-5.883-3.251-8.133-5.67-2.25-2.42-3.973-5.316-5.17-8.678-1.198-3.353-1.8-7.02-1.8-11.002 0-4.025.67-7.71 2.003-11.054 1.333-3.354 3.21-6.24 5.63-8.66 2.419-2.42 5.322-4.304 8.693-5.646 3.37-1.35 7.097-2.029 11.172-2.029 3.974 0 7.454.646 10.434 1.92 2.972 1.264 5.527 2.954 7.65 5.05l-3.337 4.636c-.195.297-.45.552-.755.773-.315.229-.74.34-1.282.34-.57 0-1.147-.23-1.74-.672a22.705 22.705 0 00-2.26-1.443c-.916-.518-2.07-1.002-3.463-1.443-1.4-.45-3.175-.67-5.323-.67-2.522 0-4.83.44-6.945 1.315-2.114.875-3.93 2.131-5.442 3.761-1.528 1.63-2.708 3.617-3.566 5.952-.849 2.334-1.281 4.958-1.281 7.87 0 3.014.432 5.696 1.281 8.04.858 2.351 2.004 4.32 3.464 5.934a14.778 14.778 0 005.154 3.685c1.978.848 4.1 1.273 6.376 1.273 1.358 0 2.589-.068 3.684-.22a15.19 15.19 0 003.04-.705c.925-.315 1.8-.73 2.631-1.231a17.056 17.056 0 002.462-1.877c.247-.22.51-.399.781-.535.272-.135.57-.212.883-.212zm28.577-25.97c2.836 0 5.417.458 7.726 1.367 2.31.917 4.279 2.215 5.909 3.888 1.63 1.681 2.886 3.736 3.778 6.155.891 2.42 1.333 5.128 1.333 8.116 0 3.014-.442 5.731-1.333 8.15-.892 2.42-2.148 4.483-3.778 6.19-1.63 1.706-3.6 3.014-5.909 3.93-2.31.909-4.89 1.367-7.726 1.367-2.844 0-5.425-.458-7.751-1.366-2.318-.917-4.296-2.225-5.943-3.931-1.638-1.707-2.912-3.77-3.812-6.19-.908-2.419-1.358-5.136-1.358-8.15 0-2.988.45-5.696 1.358-8.116.9-2.42 2.174-4.474 3.812-6.155 1.647-1.673 3.625-2.971 5.943-3.888 2.326-.909 4.907-1.367 7.751-1.367zm0 32.125c3.158 0 5.502-1.06 7.021-3.183 1.52-2.131 2.276-5.239 2.276-9.34 0-4.1-.756-7.224-2.276-9.38-1.52-2.148-3.863-3.218-7.02-3.218-3.218 0-5.587 1.078-7.115 3.243-1.537 2.156-2.301 5.28-2.301 9.356 0 4.075.764 7.182 2.3 9.322 1.529 2.13 3.898 3.2 7.115 3.2zm26.489-48.579h9.16v55.066h-9.16zm35.725 16.454c2.844 0 5.416.458 7.734 1.367 2.3.917 4.27 2.215 5.9 3.888 1.63 1.681 2.896 3.736 3.787 6.155.883 2.42 1.333 5.128 1.333 8.116 0 3.014-.45 5.731-1.333 8.15-.891 2.42-2.156 4.483-3.787 6.19-1.63 1.706-3.6 3.014-5.9 3.93-2.318.909-4.89 1.367-7.734 1.367-2.836 0-5.425-.458-7.743-1.366-2.326-.917-4.304-2.225-5.943-3.931-1.647-1.707-2.92-3.77-3.82-6.19-.9-2.419-1.359-5.136-1.359-8.15 0-2.988.459-5.696 1.359-8.116.9-2.42 2.173-4.474 3.82-6.155 1.639-1.673 3.617-2.971 5.943-3.888 2.318-.909 4.907-1.367 7.743-1.367zm0 32.125c3.167 0 5.501-1.06 7.03-3.183 1.51-2.131 2.275-5.239 2.275-9.34 0-4.1-.764-7.224-2.276-9.38-1.528-2.148-3.862-3.218-7.03-3.218-3.208 0-5.577 1.078-7.114 3.243-1.528 2.156-2.3 5.28-2.3 9.356 0 4.075.772 7.182 2.3 9.322 1.537 2.13 3.906 3.2 7.115 3.2zm35.054 6.487h-9.152v-38.018h5.595c1.189 0 1.97.552 2.335 1.664l.594 2.819a20.548 20.548 0 012.097-2.038c.73-.62 1.503-1.154 2.335-1.596a12.458 12.458 0 012.666-1.053c.95-.263 1.995-.39 3.132-.39 2.395 0 4.364.645 5.91 1.944 1.544 1.299 2.7 3.022 3.463 5.17.594-1.265 1.333-2.343 2.225-3.243.89-.9 1.867-1.638 2.929-2.207a13.354 13.354 0 013.395-1.257 16.16 16.16 0 013.609-.407c2.097 0 3.964.322 5.594.96 1.63.644 2.997 1.578 4.11 2.818 1.112 1.23 1.96 2.742 2.546 4.516.578 1.783.866 3.82.866 6.122v24.196h-9.152v-24.196c0-2.429-.534-4.245-1.596-5.468-1.06-1.222-2.615-1.834-4.67-1.834-.941 0-1.807.162-2.606.476a6.136 6.136 0 00-2.113 1.4c-.612.603-1.087 1.359-1.427 2.276-.348.908-.526 1.961-.526 3.15v24.196h-9.186v-24.196c0-2.547-.51-4.398-1.537-5.561-1.027-1.163-2.538-1.74-4.542-1.74a7.243 7.243 0 00-3.684.984c-1.147.654-2.216 1.545-3.21 2.683zm59.404 0h-6.036v-55.066h9.152v21.709a17.972 17.972 0 015.11-3.829c1.902-.95 4.127-1.426 6.673-1.426 2.072 0 3.974.424 5.689 1.282 1.715.849 3.2 2.088 4.448 3.718 1.248 1.63 2.208 3.642 2.887 6.037.68 2.402 1.019 5.153 1.019 8.269 0 2.835-.382 5.467-1.146 7.887-.773 2.428-1.86 4.525-3.278 6.3a15.217 15.217 0 01-5.153 4.176c-2.012 1.002-4.27 1.494-6.766 1.494-1.163 0-2.225-.11-3.184-.348a10.887 10.887 0 01-4.83-2.521 18.398 18.398 0 01-1.953-2.02l-.408 2.555c-.153.645-.399 1.103-.755 1.375-.366.272-.85.408-1.47.408zm11.75-31.498c-1.902 0-3.532.4-4.873 1.206-1.35.798-2.607 1.927-3.761 3.387v17.048c1.035 1.282 2.164 2.182 3.387 2.691 1.223.501 2.547.756 3.982.756 1.384 0 2.632-.263 3.744-.781s2.063-1.308 2.835-2.369c.781-1.061 1.376-2.403 1.8-4.016.416-1.621.628-3.531.628-5.73 0-2.225-.178-4.11-.534-5.646-.357-1.554-.875-2.802-1.546-3.77-.662-.959-1.468-1.664-2.42-2.114-.95-.441-2.037-.662-3.242-.662zm24.934-6.52h9.152v38.018H465.8zm10.528-11.088c0 .798-.161 1.537-.484 2.225a6.146 6.146 0 01-1.274 1.816 6.356 6.356 0 01-1.876 1.249 5.798 5.798 0 01-2.3.458c-.79 0-1.537-.153-2.233-.458a6.086 6.086 0 01-1.843-1.249 5.874 5.874 0 01-1.23-1.816 5.277 5.277 0 01-.468-2.225c0-.815.153-1.579.467-2.292a5.74 5.74 0 011.231-1.85 5.772 5.772 0 011.843-1.24 5.372 5.372 0 012.232-.467 5.66 5.66 0 012.301.467 6.02 6.02 0 011.876 1.24 5.968 5.968 0 011.274 1.85c.323.713.484 1.477.484 2.292zm38.756 25.088v24.018h-4.11c-.865 0-1.544-.128-2.037-.39-.492-.256-.866-.782-1.112-1.58l-.815-2.7a33.448 33.448 0 01-2.835 2.284 17.725 17.725 0 01-2.87 1.647c-.993.441-2.038.773-3.15.993-1.112.23-2.351.34-3.71.34-1.604 0-3.09-.22-4.449-.645-1.358-.442-2.521-1.087-3.497-1.953-.977-.866-1.732-1.936-2.284-3.226-.543-1.282-.815-2.776-.815-4.483 0-1.435.382-2.844 1.138-4.236.747-1.401 2.003-2.658 3.76-3.778 1.75-1.13 4.084-2.063 7.005-2.802 2.912-.747 6.528-1.163 10.85-1.265v-2.224c0-2.539-.535-4.423-1.605-5.646-1.078-1.222-2.64-1.834-4.695-1.834-1.477 0-2.717.17-3.701.518-.985.348-1.843.739-2.573 1.172-.73.424-1.41.815-2.02 1.163a4.087 4.087 0 01-2.038.518c-.62 0-1.155-.162-1.596-.484a3.866 3.866 0 01-1.078-1.18l-1.664-2.93c4.372-4.006 9.644-6.002 15.825-6.002 2.224 0 4.202.365 5.951 1.096 1.74.721 3.21 1.74 4.423 3.039 1.206 1.29 2.131 2.844 2.768 4.644.62 1.8.934 3.778.934 5.926zm-17.786 18.312c.942 0 1.808-.093 2.598-.263a9.603 9.603 0 002.241-.78c.705-.34 1.384-.765 2.038-1.274a18.003 18.003 0 001.978-1.8v-6.41c-2.666.127-4.89.357-6.682.688-1.791.33-3.234.755-4.321 1.273-1.087.518-1.86 1.13-2.31 1.817a4.014 4.014 0 00-.687 2.258c0 1.613.475 2.76 1.426 3.447.951.696 2.19 1.044 3.719 1.044zm35.946 5.706h-9.152v-38.018h5.594c1.19 0 1.962.552 2.335 1.664l.628 2.997a20.77 20.77 0 012.437-2.148 16.969 16.969 0 012.7-1.664c.95-.467 1.97-.832 3.056-1.078 1.087-.246 2.275-.365 3.557-.365 2.072 0 3.914.348 5.519 1.061 1.604.696 2.946 1.69 4.024 2.963 1.078 1.265 1.893 2.785 2.445 4.559.56 1.757.832 3.702.832 5.833v24.196h-9.152v-24.196c0-2.327-.535-4.118-1.605-5.392-1.078-1.273-2.69-1.91-4.839-1.91a9.556 9.556 0 00-4.448 1.07c-1.384.722-2.692 1.698-3.931 2.929zm84.635-12.642c.543 0 1.019.212 1.41.637l3.93 4.262a21.492 21.492 0 01-8.023 6.18c-3.175 1.435-6.987 2.157-11.436 2.157-3.973 0-7.547-.68-10.722-2.038-3.175-1.358-5.892-3.251-8.134-5.67-2.25-2.42-3.973-5.316-5.17-8.678-1.197-3.353-1.8-7.02-1.8-11.002 0-4.025.671-7.71 2.004-11.054 1.333-3.354 3.209-6.24 5.629-8.66 2.42-2.42 5.323-4.304 8.693-5.646 3.37-1.35 7.098-2.029 11.173-2.029 3.973 0 7.454.646 10.434 1.92 2.971 1.264 5.527 2.954 7.65 5.05l-3.337 4.636c-.196.297-.45.552-.756.773-.314.229-.738.34-1.282.34-.569 0-1.146-.23-1.74-.672a21.973 21.973 0 00-2.267-1.443c-.908-.518-2.063-1.002-3.455-1.443-1.401-.45-3.176-.67-5.324-.67-2.521 0-4.83.44-6.944 1.315a15.415 15.415 0 00-5.45 3.761c-1.52 1.63-2.7 3.617-3.558 5.952-.849 2.334-1.282 4.958-1.282 7.87 0 3.014.433 5.696 1.282 8.04.858 2.351 2.004 4.32 3.464 5.934a14.778 14.778 0 005.153 3.685c1.978.848 4.1 1.273 6.376 1.273 1.358 0 2.581-.068 3.685-.22a15.33 15.33 0 003.04-.705 13.56 13.56 0 002.63-1.231 17.056 17.056 0 002.463-1.877c.246-.22.51-.399.781-.535.272-.135.56-.212.883-.212zm28.577-25.97c2.835 0 5.416.458 7.726 1.367 2.309.917 4.278 2.215 5.908 3.888 1.63 1.681 2.887 3.736 3.778 6.155.892 2.42 1.333 5.128 1.333 8.116 0 3.014-.441 5.731-1.333 8.15-.891 2.42-2.147 4.483-3.778 6.19-1.63 1.706-3.6 3.014-5.908 3.93-2.31.909-4.89 1.367-7.726 1.367-2.844 0-5.425-.458-7.751-1.366-2.318-.917-4.305-2.225-5.943-3.931-1.647-1.707-2.912-3.77-3.812-6.19-.909-2.419-1.359-5.136-1.359-8.15 0-2.988.45-5.696 1.359-8.116.9-2.42 2.165-4.474 3.812-6.155 1.638-1.673 3.625-2.971 5.943-3.888 2.326-.909 4.907-1.367 7.75-1.367zm0 32.125c3.158 0 5.501-1.06 7.02-3.183 1.52-2.131 2.276-5.239 2.276-9.34 0-4.1-.755-7.224-2.275-9.38-1.52-2.148-3.863-3.218-7.021-3.218-3.218 0-5.587 1.078-7.115 3.243-1.536 2.156-2.3 5.28-2.3 9.356 0 4.075.764 7.182 2.3 9.322 1.528 2.13 3.897 3.2 7.115 3.2zm36.684 6.487h-9.152v-31.133l-3.302-.518c-.713-.118-1.29-.365-1.715-.738-.442-.374-.654-.892-.654-1.554v-3.744h5.671v-2.818c0-2.174.323-4.127.985-5.858.654-1.724 1.588-3.193 2.81-4.407 1.223-1.214 2.709-2.14 4.466-2.776 1.757-.645 3.727-.968 5.926-.968 1.757 0 3.387.238 4.899.705l-.187 4.593c-.051.722-.382 1.163-1.002 1.333-.62.178-1.333.263-2.148.263-1.087 0-2.055.119-2.912.357a4.81 4.81 0 00-2.165 1.222c-.594.577-1.044 1.342-1.35 2.3-.314.943-.467 2.123-.467 3.533v2.521h9.89v6.52h-9.593zm25.97 0h-9.151v-31.133l-3.294-.518c-.722-.118-1.29-.365-1.724-.738-.433-.374-.645-.892-.645-1.554v-3.744h5.663v-2.818c0-2.174.33-4.127.985-5.858.653-1.724 1.596-3.193 2.818-4.407 1.223-1.214 2.709-2.14 4.466-2.776 1.749-.645 3.727-.968 5.926-.968 1.757 0 3.387.238 4.89.705l-.187 4.593c-.042.722-.382 1.163-.993 1.333-.62.178-1.342.263-2.157.263-1.086 0-2.054.119-2.903.357-.85.229-1.58.636-2.173 1.222-.586.577-1.036 1.342-1.342 2.3-.314.943-.467 2.123-.467 3.533v2.521h9.89v6.52h-9.601zm30.912-38.612c2.395 0 4.602.382 6.614 1.146 2.012.764 3.744 1.885 5.204 3.353 1.46 1.47 2.598 3.277 3.413 5.417.815 2.13 1.223 4.567 1.223 7.31 0 .696-.034 1.273-.094 1.732-.06.45-.17.806-.33 1.07a1.396 1.396 0 01-.655.56c-.271.11-.62.161-1.035.161H730.87c.272 3.905 1.316 6.766 3.15 8.6 1.825 1.825 4.245 2.742 7.259 2.742 1.486 0 2.76-.178 3.837-.517 1.078-.349 2.012-.73 2.819-1.155a65.512 65.512 0 002.114-1.146c.603-.348 1.188-.518 1.757-.518.365 0 .688.076.96.22.271.145.509.357.704.629l2.666 3.336a15.299 15.299 0 01-3.404 2.989 19.514 19.514 0 01-3.948 1.927 21.79 21.79 0 01-4.186 1.01 29.08 29.08 0 01-4.134.297c-2.64 0-5.103-.433-7.378-1.307a16.677 16.677 0 01-5.926-3.897c-1.68-1.715-2.997-3.837-3.964-6.367-.96-2.539-1.444-5.476-1.444-8.804 0-2.598.416-5.035 1.257-7.318.84-2.284 2.046-4.28 3.616-5.969 1.571-1.69 3.481-3.03 5.748-4.024 2.258-.985 4.805-1.477 7.65-1.477zm.187 6.554c-2.674 0-4.763.756-6.265 2.267-1.512 1.502-2.47 3.642-2.895 6.41h17.2c0-1.189-.161-2.31-.484-3.354a7.779 7.779 0 00-1.486-2.768c-.662-.79-1.502-1.409-2.513-1.867-1.018-.459-2.198-.688-3.557-.688zm39.427-6.554c2.394 0 4.601.382 6.614 1.146 2.012.764 3.744 1.885 5.204 3.353 1.46 1.47 2.598 3.277 3.413 5.417.815 2.13 1.222 4.567 1.222 7.31 0 .696-.034 1.273-.093 1.732-.06.45-.17.806-.331 1.07a1.396 1.396 0 01-.654.56c-.272.11-.62.161-1.036.161h-23.491c.272 3.905 1.316 6.766 3.15 8.6 1.825 1.825 4.245 2.742 7.258 2.742 1.486 0 2.76-.178 3.838-.517 1.078-.349 2.012-.73 2.819-1.155a65.51 65.51 0 002.113-1.146c.603-.348 1.19-.518 1.758-.518.365 0 .688.076.96.22.27.145.509.357.704.629l2.666 3.336a15.299 15.299 0 01-3.405 2.989 19.514 19.514 0 01-3.947 1.927 21.79 21.79 0 01-4.186 1.01 29.08 29.08 0 01-4.135.297c-2.64 0-5.102-.433-7.377-1.307a16.677 16.677 0 01-5.926-3.897c-1.681-1.715-2.997-3.837-3.965-6.367-.96-2.539-1.443-5.476-1.443-8.804 0-2.598.416-5.035 1.256-7.318.84-2.284 2.046-4.28 3.617-5.969 1.57-1.69 3.48-3.03 5.748-4.024 2.258-.985 4.805-1.477 7.649-1.477zm.178 6.554c-2.666 0-4.754.756-6.257 2.267-1.51 1.502-2.47 3.642-2.895 6.41h17.2c0-1.189-.16-2.31-.483-3.354a7.779 7.779 0 00-1.486-2.768c-.662-.79-1.503-1.409-2.513-1.867-1.019-.459-2.199-.688-3.566-.688zm0 0" stroke="#fff" fill="#fff" stroke-width="2.173"/><path style="is-custom-font:none;font-file-url:none" d="M400.366 838.11l-1.188 2.344c-.156.26-.312.447-.479.572a1.124 1.124 0 01-.666.198c-.292 0-.625-.146-1.01-.437a17.47 17.47 0 00-1.448-.958 12.252 12.252 0 00-2.114-.958c-.823-.282-1.822-.427-2.989-.427-1.104 0-2.082.156-2.926.447-.854.302-1.562.698-2.135 1.209a5.061 5.061 0 00-1.28 1.79 5.671 5.671 0 00-.438 2.23c0 1.02.26 1.863.76 2.54.5.667 1.166 1.24 1.979 1.719.822.468 1.76.874 2.801 1.229 1.052.343 2.114.708 3.208 1.083a37.27 37.27 0 013.207 1.26 10.927 10.927 0 012.802 1.77 7.864 7.864 0 011.978 2.614c.51 1.041.76 2.312.76 3.822 0 1.593-.27 3.093-.822 4.488a10.112 10.112 0 01-2.364 3.656c-1.052 1.041-2.333 1.853-3.853 2.447-1.52.594-3.25.885-5.176.885-2.364 0-4.51-.427-6.457-1.28-1.937-.855-3.603-2.021-4.978-3.479l1.427-2.333c.135-.187.302-.354.5-.479.187-.125.406-.187.645-.187.354 0 .76.187 1.219.573a23.39 23.39 0 001.718 1.26c.687.458 1.52.874 2.5 1.26.968.375 2.166.573 3.582.573 1.166 0 2.208-.167 3.124-.49a6.479 6.479 0 002.322-1.354 5.995 5.995 0 001.469-2.103c.333-.813.51-1.719.51-2.718 0-1.104-.25-2.01-.75-2.719-.5-.708-1.156-1.29-1.968-1.77a14.624 14.624 0 00-2.79-1.208c-1.042-.333-2.115-.666-3.208-1.01a36.939 36.939 0 01-3.208-1.208 10.755 10.755 0 01-2.79-1.791c-.813-.73-1.47-1.646-1.97-2.729-.499-1.104-.76-2.458-.76-4.072 0-1.291.261-2.53.76-3.728a9.854 9.854 0 012.167-3.218c.958-.927 2.135-1.677 3.53-2.239 1.406-.562 3.01-.833 4.832-.833 2.031 0 3.895.312 5.572.958a12.84 12.84 0 014.395 2.801zm6.904 7.332h4.54v25.785h-4.54zm5.55-8.092c0 .438-.082.854-.27 1.23a3.324 3.324 0 01-.708 1.02 3.168 3.168 0 01-1.031.697c-.396.177-.812.26-1.25.26-.447 0-.854-.083-1.239-.26a3.36 3.36 0 01-1.02-.697 3.482 3.482 0 01-.698-1.02 3.015 3.015 0 01-.25-1.23c0-.437.083-.854.25-1.26.177-.396.406-.75.697-1.041a3.36 3.36 0 011.021-.698c.385-.177.792-.26 1.24-.26.437 0 .853.083 1.249.26.385.167.74.396 1.031.698.302.291.531.645.708 1.041.188.406.27.823.27 1.26zm11.508 33.877h-4.53v-25.785h2.698c.645 0 1.051.312 1.218.937l.354 2.802c1.125-1.23 2.375-2.24 3.76-3 1.374-.76 2.978-1.145 4.8-1.145 1.406 0 2.646.24 3.729.698a7.292 7.292 0 012.697 1.989c.719.854 1.27 1.895 1.645 3.093.365 1.208.552 2.53.552 3.999v16.412h-4.53v-16.412c0-1.958-.437-3.468-1.333-4.551-.895-1.073-2.25-1.604-4.093-1.604a7.582 7.582 0 00-3.749.958c-1.166.646-2.239 1.52-3.218 2.624zm42.563-22.827l-1.198 1.624c-.135.188-.27.333-.416.427-.136.104-.323.156-.584.156-.25 0-.52-.104-.822-.312a10.658 10.658 0 00-1.135-.698c-.459-.26-1.01-.49-1.667-.708-.656-.208-1.458-.312-2.405-.312-1.26 0-2.364.218-3.333.666a6.66 6.66 0 00-2.437 1.958c-.656.843-1.145 1.874-1.468 3.072-.333 1.208-.5 2.562-.5 4.051 0 1.562.177 2.947.531 4.155.365 1.219.864 2.24 1.5 3.062a6.57 6.57 0 002.364 1.885c.927.437 1.958.646 3.114.646 1.103 0 2.01-.125 2.728-.386.708-.27 1.302-.562 1.78-.885.47-.323.865-.614 1.178-.885.302-.26.604-.385.906-.385.395 0 .687.145.874.437l1.27 1.656a9.987 9.987 0 01-4.196 3.01c-1.687.635-3.468.947-5.332.947-1.614 0-3.114-.291-4.488-.885a10.293 10.293 0 01-3.604-2.583c-1.02-1.135-1.822-2.52-2.405-4.165-.584-1.646-.875-3.52-.875-5.624 0-1.916.27-3.697.802-5.321.53-1.625 1.312-3.031 2.343-4.208 1.02-1.187 2.291-2.103 3.801-2.77 1.51-.656 3.239-.99 5.186-.99 1.802 0 3.406.292 4.79.886a11.373 11.373 0 013.698 2.479zm15.194-3.364c1.541 0 2.968.26 4.28.77a9.597 9.597 0 013.374 2.25c.958.979 1.698 2.176 2.229 3.614.541 1.426.802 3.061.802 4.894 0 .719-.073 1.187-.23 1.427-.145.24-.437.354-.864.354h-17.152c.031 1.635.25 3.051.667 4.26.406 1.207.958 2.207 1.666 3.02a6.838 6.838 0 002.551 1.801c.99.396 2.094.594 3.312.594 1.135 0 2.114-.136 2.937-.396.833-.26 1.541-.542 2.135-.854a13.443 13.443 0 001.479-.854c.395-.26.75-.385 1.041-.385.364 0 .656.145.854.437l1.28 1.656a8.631 8.631 0 01-2.01 1.76c-.78.5-1.624.916-2.509 1.24a16.51 16.51 0 01-2.77.728c-.948.156-1.885.23-2.822.23-1.781 0-3.426-.303-4.916-.896a10.958 10.958 0 01-3.905-2.646c-1.093-1.166-1.937-2.603-2.551-4.321-.615-1.719-.917-3.677-.917-5.895 0-1.801.271-3.488.823-5.05.552-1.563 1.343-2.906 2.385-4.052 1.03-1.145 2.301-2.051 3.79-2.707 1.49-.646 3.166-.98 5.04-.98zm.104 3.343c-2.197 0-3.916.625-5.176 1.885-1.25 1.27-2.03 3.02-2.333 5.27h14.018c0-1.063-.146-2.021-.427-2.896a6.568 6.568 0 00-1.27-2.26 5.758 5.758 0 00-2.052-1.489c-.813-.344-1.729-.51-2.76-.51zm37.772-14.028c1.551 0 2.989.23 4.332.687 1.333.458 2.489 1.115 3.468 1.99.979.874 1.74 1.947 2.301 3.196.563 1.26.844 2.687.844 4.28 0 1.354-.198 2.615-.604 3.77a16.216 16.216 0 01-1.656 3.323 24.219 24.219 0 01-2.416 3.072c-.906 1-1.864 2.01-2.885 3.04l-9.591 9.832a17.594 17.594 0 012.052-.448 12.48 12.48 0 012.02-.167h12.216c.49 0 .885.146 1.166.438.292.28.437.656.437 1.124v2.74h-24.337v-1.553c0-.322.062-.656.187-.989a2.63 2.63 0 01.635-.937l11.675-11.737a68.915 68.915 0 002.645-2.843 20.64 20.64 0 002.062-2.728c.562-.927 1-1.854 1.301-2.791a9.857 9.857 0 00.459-3.02c0-1.073-.167-2-.51-2.812a5.445 5.445 0 00-1.396-2 5.789 5.789 0 00-2.083-1.176 7.973 7.973 0 00-2.572-.407c-.917 0-1.77.136-2.552.407a7.024 7.024 0 00-2.072 1.145 6.493 6.493 0 00-1.52 1.718 6.322 6.322 0 00-.886 2.187c-.135.49-.333.844-.614 1.063-.27.229-.625.333-1.073.333-.083 0-.166 0-.26-.01-.094-.011-.198-.021-.312-.042l-2.375-.406c.24-1.667.698-3.135 1.375-4.416.687-1.28 1.541-2.354 2.582-3.218 1.042-.875 2.24-1.53 3.593-1.979 1.344-.447 2.802-.666 4.364-.666zm42.229 18.652c0 3.197-.344 5.956-1.031 8.29-.688 2.332-1.625 4.258-2.812 5.79-1.187 1.53-2.593 2.665-4.207 3.405-1.625.75-3.364 1.124-5.218 1.124-1.864 0-3.593-.374-5.196-1.124-1.604-.74-3-1.875-4.187-3.406-1.187-1.53-2.124-3.457-2.801-5.79s-1.02-5.092-1.02-8.29c0-3.186.343-5.956 1.02-8.29.677-2.342 1.614-4.29 2.801-5.82 1.187-1.542 2.583-2.677 4.187-3.427 1.603-.75 3.332-1.114 5.196-1.114 1.854 0 3.593.364 5.218 1.114 1.614.75 3.02 1.885 4.207 3.426 1.187 1.531 2.124 3.479 2.812 5.822.687 2.333 1.03 5.103 1.03 8.29zm-4.707 0c0-2.781-.24-5.124-.698-7.01-.469-1.894-1.094-3.415-1.885-4.57-.791-1.157-1.698-1.98-2.739-2.49a7.48 7.48 0 00-3.239-.74c-1.114 0-2.197.25-3.228.74-1.031.51-1.937 1.333-2.718 2.49-.781 1.155-1.406 2.676-1.875 4.57-.468 1.886-.697 4.229-.697 7.01 0 2.79.229 5.123.697 6.998.469 1.885 1.094 3.405 1.875 4.561.78 1.156 1.687 1.979 2.718 2.49a7.471 7.471 0 003.228.739 7.48 7.48 0 003.24-.74c1.04-.51 1.947-1.333 2.738-2.489.791-1.156 1.416-2.676 1.885-4.561.458-1.875.698-4.207.698-6.998zm21.536-18.652c1.541 0 2.989.23 4.322.687 1.343.458 2.5 1.115 3.478 1.99.979.874 1.74 1.947 2.302 3.196.562 1.26.843 2.687.843 4.28 0 1.354-.208 2.615-.614 3.77a15.66 15.66 0 01-1.646 3.323 24.219 24.219 0 01-2.416 3.072c-.906 1-1.874 2.01-2.884 3.04l-9.592 9.832a17.594 17.594 0 012.052-.448 12.386 12.386 0 012.02-.167H589.1c.49 0 .875.146 1.166.438.292.28.438.656.438 1.124v2.74h-24.338v-1.553c0-.322.062-.656.187-.989.125-.344.334-.656.625-.937l11.685-11.737a68.913 68.913 0 002.645-2.843 19.668 19.668 0 002.051-2.728c.563-.927 1-1.854 1.313-2.791a9.857 9.857 0 00.458-3.02c0-1.073-.177-2-.51-2.812-.344-.802-.813-1.469-1.406-2a5.744 5.744 0 00-2.073-1.176 8.037 8.037 0 00-2.582-.407c-.906 0-1.76.136-2.541.407a7.024 7.024 0 00-2.073 1.145 6.72 6.72 0 00-1.53 1.718 6.514 6.514 0 00-.875 2.187c-.136.49-.344.844-.615 1.063-.27.229-.625.333-1.073.333-.083 0-.166 0-.26-.01-.094-.011-.208-.021-.323-.042l-2.374-.406c.25-1.667.708-3.135 1.385-4.416.677-1.28 1.541-2.354 2.583-3.218 1.041-.875 2.239-1.53 3.592-1.979 1.344-.447 2.802-.666 4.364-.666zm30.013 0c1.542 0 2.968.219 4.27.656 1.312.448 2.427 1.073 3.374 1.885a8.65 8.65 0 012.208 2.958c.52 1.145.781 2.426.781 3.842 0 1.156-.146 2.177-.448 3.093a7.271 7.271 0 01-1.27 2.385 7.832 7.832 0 01-1.99 1.75 11.44 11.44 0 01-2.634 1.145c2.385.625 4.165 1.677 5.363 3.156 1.198 1.479 1.791 3.322 1.791 5.54 0 1.687-.312 3.197-.947 4.54a10.078 10.078 0 01-2.614 3.416c-1.104.948-2.385 1.667-3.853 2.166-1.469.5-3.041.75-4.728.75-1.927 0-3.583-.24-4.958-.718-1.374-.49-2.53-1.156-3.488-2a10.897 10.897 0 01-2.343-3.01 21.71 21.71 0 01-1.552-3.79l1.937-.812c.354-.157.708-.23 1.073-.23.333 0 .635.073.895.22.27.145.469.374.604.676.031.063.063.135.094.219.042.073.073.146.104.229.24.5.531 1.062.875 1.677a6.827 6.827 0 001.374 1.739c.573.541 1.281 1 2.146 1.374.854.375 1.926.563 3.197.563 1.27 0 2.385-.209 3.343-.625.958-.417 1.76-.958 2.395-1.614a6.882 6.882 0 001.437-2.219c.323-.812.49-1.624.49-2.416 0-.989-.136-1.885-.407-2.697a4.561 4.561 0 00-1.426-2.114c-.677-.594-1.635-1.062-2.843-1.406-1.208-.333-2.77-.51-4.676-.51v-3.28c1.551-.01 2.864-.188 3.957-.51 1.094-.313 2-.761 2.687-1.323.698-.563 1.208-1.23 1.51-2.01.323-.781.48-1.646.48-2.593 0-1.052-.168-1.969-.49-2.75a5.382 5.382 0 00-1.365-1.937 5.617 5.617 0 00-2.062-1.145c-.78-.26-1.635-.386-2.551-.386-.917 0-1.76.136-2.541.407-.781.28-1.479.656-2.073 1.145a6.315 6.315 0 00-1.52 1.718 8.11 8.11 0 00-.916 2.187c-.136.49-.344.844-.615 1.063-.27.229-.614.333-1.041.333-.084 0-.177 0-.271-.01-.083-.011-.187-.021-.312-.042l-2.364-.406c.24-1.667.697-3.135 1.374-4.416.677-1.28 1.542-2.354 2.583-3.218 1.041-.875 2.239-1.53 3.593-1.979 1.343-.447 2.79-.666 4.363-.666zm66.036-554.736h-1.344c-3.842-19.922-21.4-35.012-42.416-35.012h-262.58c-21.026 0-38.584 15.09-42.427 35.012h-1.344c-14.173 0-25.712 11.528-25.712 25.712 0 14.174 11.539 25.702 25.712 25.702h1.031l5.572 92.914c-.333.292-.656.583-.969.906a16.837 16.837 0 00-4.728 12.414l8.071 210.093a16.892 16.892 0 0011.966 15.538l4.895 81.605c.656 11.07 8.3 20.172 18.474 23.14v10.33c0 14.174 11.539 25.713 25.713 25.713h210.062c14.184 0 25.712-11.54 25.712-25.713v-10.33c10.174-2.968 17.818-12.07 18.474-23.14l4.905-81.605a16.922 16.922 0 0011.966-15.548l8.06-210.083c.188-4.655-1.499-9.06-4.727-12.414-.302-.323-.636-.614-.969-.906l5.582-92.914h1.02c14.174 0 25.713-11.528 25.713-25.702 0-14.184-11.539-25.712-25.712-25.712zm-306.34-18.6h262.58c11.914 0 22.036 7.821 25.514 18.6h-313.62c3.48-10.779 13.602-18.6 25.526-18.6zm288.49 175.05c.063 0 .24 0 .396.167.166.167.156.344.156.406l-3.718 96.799h-40.25a8.209 8.209 0 00-8.206 8.206 8.209 8.209 0 008.206 8.206h39.615l-3.718 96.851a.543.543 0 01-.552.52H350.878a.541.541 0 01-.552-.51l-3.718-96.86h39.615a8.202 8.202 0 008.207-8.207 8.202 8.202 0 00-8.207-8.206h-40.25l-3.718-96.799c0-.062 0-.24.156-.406.167-.167.334-.167.396-.167zM385.682 777.97v-9.3h18.6v18.6h-9.3c-5.124 0-9.3-4.176-9.3-9.3zm53.611-9.3v18.6h-18.6v-18.6zm35.012 0v18.6h-18.6v-18.6zm35.013 0v18.6h-18.6v-18.6zm35.001 0v18.6h-18.6v-18.6zm35.012 0v18.6h-18.6v-18.6zm25.713 18.6h-9.3v-18.6h18.6v9.3c0 5.124-4.166 9.3-9.3 9.3zm18.526-35.012H376.455c-4.905 0-8.987-3.843-9.279-8.737l-4.8-79.887H637.65l-4.8 79.887c-.292 4.894-4.364 8.737-9.28 8.737zm28.712-332.604H347.743l-5.321-88.624h315.181zm22.786-105.026h-350.11c-5.124 0-9.3-4.176-9.3-9.3 0-5.134 4.176-9.3 9.3-9.3h350.11c5.123 0 9.3 4.166 9.3 9.3 0 5.124-4.177 9.3-9.3 9.3zm0 0" stroke="#fff" fill="#fff" stroke-width="2.666"/><path style="is-custom-font:none;font-file-url:none" d="M421.235 549.85h18.62c4.02 29.606 29.462 52.507 60.152 52.507 30.701 0 56.132-22.9 60.152-52.508h18.62a8.202 8.202 0 008.207-8.206 8.202 8.202 0 00-8.207-8.206h-18.62c-4.02-29.618-29.45-52.518-60.152-52.518-30.69 0-56.131 22.9-60.151 52.518h-18.62a8.209 8.209 0 00-8.207 8.206 8.209 8.209 0 008.206 8.206zm78.772 36.105c-21.63 0-39.677-15.59-43.53-36.106h87.072c-3.864 20.516-21.912 36.106-43.542 36.106zm0-88.624c21.63 0 39.678 15.58 43.542 36.106h-87.072c3.853-20.526 21.9-36.106 43.53-36.106zm0 0" stroke="#fff" fill="#fff" stroke-width="2.666"/></svg>