<svg xmlns="http://www.w3.org/2000/svg" xmlns:xlink="http://www.w3.org/1999/xlink" version="1.1" width="1000" height="1000" viewBox="0 0 1000 1000" xml:space="preserve">
<desc>Created with Fabric.js 3.5.0</desc>
<defs>
</defs>
<rect x="0" y="0" width="100%" height="100%" fill="rgba(102,51,102,0.02)"/>
<g transform="matrix(10.8594 0 0 6.3302 500 500)" id="883591">
<path style="stroke: rgb(255,255,255); stroke-width: 5; stroke-dasharray: none; stroke-linecap: butt; stroke-dashoffset: 0; stroke-linejoin: miter; stroke-miterlimit: 4; is-custom-font: none; font-file-url: none; fill: none; fill-rule: nonzero; opacity: 1;" vector-effect="non-scaling-stroke" transform=" translate(-46.5001, -78.5)" d="M 2.6167 78.5 C 2.6167 57.2341 7.7391 38.064 15.8764 24.2946 C 24.0482 10.4665 34.9664 2.5 46.5001 2.5 C 58.0338 2.5 68.952 10.4665 77.1238 24.2946 C 85.2611 38.064 90.3835 57.2341 90.3835 78.5 C 90.3835 99.7659 85.2611 118.936 77.1238 132.705 C 68.952 146.533 58.0338 154.5 46.5001 154.5 C 34.9664 154.5 24.0482 146.533 15.8764 132.705 C 7.7391 118.936 2.6167 99.7659 2.6167 78.5 Z" stroke-linecap="round"/>
</g>
<g transform="matrix(2.1734 0 0 2.1734 500.006 183.9261)" id="surface1">
<path style="stroke: rgb(255,255,255); stroke-width: 1; stroke-dasharray: none; stroke-linecap: butt; stroke-dashoffset: 0; stroke-linejoin: miter; stroke-miterlimit: 4; is-custom-font: none; font-file-url: none; fill: rgb(255,255,255); fill-rule: nonzero; opacity: 1;" transform=" translate(-173.1875, -43.332)" d="M 55.335938 50.046875 C 55.585938 50.046875 55.804688 50.144531 55.984375 50.339844 L 57.792969 52.300781 C 56.792969 53.539062 55.5625 54.488281 54.101562 55.144531 C 52.640625 55.804688 50.886719 56.136719 48.839844 56.136719 C 47.011719 56.136719 45.367188 55.824219 43.90625 55.199219 C 42.445312 54.574219 41.199219 53.703125 40.164062 52.589844 C 39.128906 51.476562 38.335938 50.144531 37.785156 48.597656 C 37.234375 47.054688 36.957031 45.367188 36.957031 43.535156 C 36.957031 41.683594 37.265625 39.988281 37.878906 38.449219 C 38.492188 36.90625 39.355469 35.578125 40.46875 34.464844 C 41.582031 33.351562 42.917969 32.484375 44.46875 31.867188 C 46.019531 31.246094 47.734375 30.933594 49.609375 30.933594 C 51.4375 30.933594 53.039062 31.230469 54.410156 31.816406 C 55.777344 32.398438 56.953125 33.175781 57.929688 34.140625 L 56.394531 36.273438 C 56.304688 36.410156 56.1875 36.527344 56.046875 36.628906 C 55.902344 36.734375 55.707031 36.785156 55.457031 36.785156 C 55.195312 36.785156 54.929688 36.679688 54.65625 36.476562 C 54.382812 36.273438 54.035156 36.050781 53.617188 35.8125 C 53.195312 35.574219 52.664062 35.351562 52.023438 35.148438 C 51.378906 34.941406 50.5625 34.839844 49.574219 34.839844 C 48.414062 34.839844 47.351562 35.042969 46.378906 35.445312 C 45.40625 35.847656 44.570312 36.425781 43.875 37.175781 C 43.171875 37.925781 42.628906 38.839844 42.234375 39.914062 C 41.84375 40.988281 41.644531 42.195312 41.644531 43.535156 C 41.644531 44.921875 41.84375 46.15625 42.234375 47.234375 C 42.628906 48.316406 43.15625 49.222656 43.828125 49.964844 C 44.5 50.703125 45.289062 51.269531 46.199219 51.660156 C 47.109375 52.050781 48.085938 52.246094 49.132812 52.246094 C 49.757812 52.246094 50.324219 52.214844 50.828125 52.144531 C 51.335938 52.078125 51.800781 51.96875 52.226562 51.820312 C 52.652344 51.675781 53.054688 51.484375 53.4375 51.253906 C 53.816406 51.019531 54.195312 50.730469 54.570312 50.390625 C 54.683594 50.289062 54.804688 50.207031 54.929688 50.144531 C 55.054688 50.082031 55.191406 50.046875 55.335938 50.046875 Z M 68.484375 38.097656 C 69.789062 38.097656 70.976562 38.308594 72.039062 38.726562 C 73.101562 39.148438 74.007812 39.746094 74.757812 40.515625 C 75.507812 41.289062 76.085938 42.234375 76.496094 43.347656 C 76.90625 44.460938 77.109375 45.707031 77.109375 47.082031 C 77.109375 48.46875 76.90625 49.71875 76.496094 50.832031 C 76.085938 51.945312 75.507812 52.894531 74.757812 53.679688 C 74.007812 54.464844 73.101562 55.066406 72.039062 55.488281 C 70.976562 55.90625 69.789062 56.117188 68.484375 56.117188 C 67.175781 56.117188 65.988281 55.90625 64.917969 55.488281 C 63.851562 55.066406 62.941406 54.464844 62.183594 53.679688 C 61.429688 52.894531 60.84375 51.945312 60.429688 50.832031 C 60.011719 49.71875 59.804688 48.46875 59.804688 47.082031 C 59.804688 45.707031 60.011719 44.460938 60.429688 43.347656 C 60.84375 42.234375 61.429688 41.289062 62.183594 40.515625 C 62.941406 39.746094 63.851562 39.148438 64.917969 38.726562 C 65.988281 38.308594 67.175781 38.097656 68.484375 38.097656 Z M 68.484375 52.878906 C 69.9375 52.878906 71.015625 52.390625 71.714844 51.414062 C 72.414062 50.433594 72.761719 49.003906 72.761719 47.117188 C 72.761719 45.230469 72.414062 43.792969 71.714844 42.800781 C 71.015625 41.8125 69.9375 41.320312 68.484375 41.320312 C 67.003906 41.320312 65.914062 41.816406 65.210938 42.8125 C 64.503906 43.804688 64.152344 45.242188 64.152344 47.117188 C 64.152344 48.992188 64.503906 50.421875 65.210938 51.40625 C 65.914062 52.386719 67.003906 52.878906 68.484375 52.878906 Z M 80.671875 30.527344 L 84.886719 30.527344 L 84.886719 55.863281 L 80.671875 55.863281 Z M 97.109375 38.097656 C 98.417969 38.097656 99.601562 38.308594 100.667969 38.726562 C 101.726562 39.148438 102.632812 39.746094 103.382812 40.515625 C 104.132812 41.289062 104.714844 42.234375 105.125 43.347656 C 105.53125 44.460938 105.738281 45.707031 105.738281 47.082031 C 105.738281 48.46875 105.53125 49.71875 105.125 50.832031 C 104.714844 51.945312 104.132812 52.894531 103.382812 53.679688 C 102.632812 54.464844 101.726562 55.066406 100.667969 55.488281 C 99.601562 55.90625 98.417969 56.117188 97.109375 56.117188 C 95.804688 56.117188 94.613281 55.90625 93.546875 55.488281 C 92.476562 55.066406 91.566406 54.464844 90.8125 53.679688 C 90.054688 52.894531 89.46875 51.945312 89.054688 50.832031 C 88.640625 49.71875 88.429688 48.46875 88.429688 47.082031 C 88.429688 45.707031 88.640625 44.460938 89.054688 43.347656 C 89.46875 42.234375 90.054688 41.289062 90.8125 40.515625 C 91.566406 39.746094 92.476562 39.148438 93.546875 38.726562 C 94.613281 38.308594 95.804688 38.097656 97.109375 38.097656 Z M 97.109375 52.878906 C 98.566406 52.878906 99.640625 52.390625 100.34375 51.414062 C 101.039062 50.433594 101.390625 49.003906 101.390625 47.117188 C 101.390625 45.230469 101.039062 43.792969 100.34375 42.800781 C 99.640625 41.8125 98.566406 41.320312 97.109375 41.320312 C 95.632812 41.320312 94.542969 41.816406 93.835938 42.8125 C 93.132812 43.804688 92.777344 45.242188 92.777344 47.117188 C 92.777344 48.992188 93.132812 50.421875 93.835938 51.40625 C 94.542969 52.386719 95.632812 52.878906 97.109375 52.878906 Z M 113.238281 55.863281 L 109.027344 55.863281 L 109.027344 38.371094 L 111.601562 38.371094 C 112.148438 38.371094 112.507812 38.625 112.675781 39.136719 L 112.949219 40.433594 C 113.257812 40.089844 113.578125 39.777344 113.914062 39.496094 C 114.25 39.210938 114.605469 38.964844 114.988281 38.761719 C 115.367188 38.558594 115.777344 38.394531 116.214844 38.277344 C 116.652344 38.15625 117.132812 38.097656 117.65625 38.097656 C 118.757812 38.097656 119.664062 38.394531 120.375 38.992188 C 121.085938 39.589844 121.617188 40.382812 121.96875 41.371094 C 122.242188 40.789062 122.582031 40.292969 122.992188 39.878906 C 123.402344 39.464844 123.851562 39.125 124.339844 38.863281 C 124.828125 38.601562 125.347656 38.410156 125.902344 38.285156 C 126.449219 38.160156 127.003906 38.097656 127.5625 38.097656 C 128.527344 38.097656 129.386719 38.246094 130.136719 38.539062 C 130.886719 38.835938 131.515625 39.265625 132.027344 39.835938 C 132.539062 40.402344 132.929688 41.097656 133.199219 41.914062 C 133.464844 42.734375 133.597656 43.671875 133.597656 44.730469 L 133.597656 55.863281 L 129.386719 55.863281 L 129.386719 44.730469 C 129.386719 43.613281 129.140625 42.777344 128.652344 42.214844 C 128.164062 41.652344 127.449219 41.371094 126.503906 41.371094 C 126.070312 41.371094 125.671875 41.445312 125.304688 41.589844 C 124.933594 41.738281 124.609375 41.953125 124.332031 42.234375 C 124.050781 42.511719 123.832031 42.859375 123.675781 43.28125 C 123.515625 43.699219 123.433594 44.183594 123.433594 44.730469 L 123.433594 55.863281 L 119.207031 55.863281 L 119.207031 44.730469 C 119.207031 43.558594 118.972656 42.707031 118.5 42.171875 C 118.027344 41.636719 117.332031 41.371094 116.410156 41.371094 C 115.808594 41.371094 115.242188 41.519531 114.714844 41.824219 C 114.1875 42.125 113.695312 42.535156 113.238281 43.058594 Z M 140.570312 55.863281 L 137.792969 55.863281 L 137.792969 30.527344 L 142.003906 30.527344 L 142.003906 40.515625 C 142.695312 39.777344 143.480469 39.191406 144.355469 38.753906 C 145.230469 38.316406 146.253906 38.097656 147.425781 38.097656 C 148.378906 38.097656 149.253906 38.292969 150.042969 38.6875 C 150.832031 39.078125 151.515625 39.648438 152.089844 40.398438 C 152.664062 41.148438 153.105469 42.074219 153.417969 43.175781 C 153.730469 44.28125 153.886719 45.546875 153.886719 46.980469 C 153.886719 48.285156 153.710938 49.496094 153.359375 50.609375 C 153.003906 51.726562 152.503906 52.691406 151.851562 53.507812 C 151.195312 54.328125 150.40625 54.96875 149.480469 55.429688 C 148.554688 55.890625 147.515625 56.117188 146.367188 56.117188 C 145.832031 56.117188 145.34375 56.066406 144.902344 55.957031 C 144.457031 55.847656 144.054688 55.699219 143.691406 55.503906 C 143.328125 55.3125 142.988281 55.074219 142.679688 54.796875 C 142.363281 54.519531 142.066406 54.207031 141.78125 53.867188 L 141.59375 55.042969 C 141.523438 55.339844 141.410156 55.550781 141.246094 55.675781 C 141.078125 55.800781 140.855469 55.863281 140.570312 55.863281 Z M 145.976562 41.371094 C 145.101562 41.371094 144.351562 41.554688 143.734375 41.925781 C 143.113281 42.292969 142.535156 42.8125 142.003906 43.484375 L 142.003906 51.328125 C 142.480469 51.917969 143 52.332031 143.5625 52.566406 C 144.125 52.796875 144.734375 52.914062 145.394531 52.914062 C 146.03125 52.914062 146.605469 52.792969 147.117188 52.554688 C 147.628906 52.316406 148.066406 51.953125 148.421875 51.464844 C 148.78125 50.976562 149.054688 50.359375 149.25 49.617188 C 149.441406 48.871094 149.539062 47.992188 149.539062 46.980469 C 149.539062 45.957031 149.457031 45.089844 149.292969 44.382812 C 149.128906 43.667969 148.890625 43.09375 148.582031 42.648438 C 148.277344 42.207031 147.90625 41.882812 147.46875 41.675781 C 147.03125 41.472656 146.53125 41.371094 145.976562 41.371094 Z M 157.449219 38.371094 L 161.660156 38.371094 L 161.660156 55.863281 L 157.449219 55.863281 Z M 162.292969 33.269531 C 162.292969 33.636719 162.21875 33.976562 162.070312 34.292969 C 161.921875 34.613281 161.726562 34.890625 161.484375 35.128906 C 161.238281 35.367188 160.949219 35.558594 160.621094 35.703125 C 160.292969 35.84375 159.9375 35.914062 159.5625 35.914062 C 159.199219 35.914062 158.855469 35.84375 158.535156 35.703125 C 158.210938 35.558594 157.925781 35.367188 157.6875 35.128906 C 157.449219 34.890625 157.261719 34.613281 157.121094 34.292969 C 156.976562 33.976562 156.90625 33.636719 156.90625 33.269531 C 156.90625 32.894531 156.976562 32.542969 157.121094 32.214844 C 157.261719 31.882812 157.449219 31.601562 157.6875 31.363281 C 157.925781 31.121094 158.210938 30.933594 158.535156 30.792969 C 158.855469 30.648438 159.199219 30.578125 159.5625 30.578125 C 159.9375 30.578125 160.292969 30.648438 160.621094 30.792969 C 160.949219 30.933594 161.238281 31.121094 161.484375 31.363281 C 161.726562 31.601562 161.921875 31.882812 162.070312 32.214844 C 162.21875 32.542969 162.292969 32.894531 162.292969 33.269531 Z M 180.125 44.8125 L 180.125 55.863281 L 178.234375 55.863281 C 177.835938 55.863281 177.523438 55.804688 177.296875 55.683594 C 177.070312 55.566406 176.898438 55.324219 176.785156 54.957031 L 176.410156 53.714844 C 175.964844 54.113281 175.53125 54.460938 175.105469 54.765625 C 174.679688 55.066406 174.238281 55.316406 173.785156 55.523438 C 173.328125 55.726562 172.847656 55.878906 172.335938 55.980469 C 171.824219 56.085938 171.253906 56.136719 170.628906 56.136719 C 169.890625 56.136719 169.207031 56.035156 168.582031 55.839844 C 167.957031 55.636719 167.421875 55.339844 166.972656 54.941406 C 166.523438 54.542969 166.175781 54.050781 165.921875 53.457031 C 165.671875 52.867188 165.546875 52.179688 165.546875 51.394531 C 165.546875 50.734375 165.722656 50.085938 166.070312 49.445312 C 166.414062 48.800781 166.992188 48.222656 167.800781 47.707031 C 168.605469 47.1875 169.679688 46.757812 171.023438 46.417969 C 172.363281 46.074219 174.027344 45.882812 176.015625 45.835938 L 176.015625 44.8125 C 176.015625 43.644531 175.769531 42.777344 175.277344 42.214844 C 174.78125 41.652344 174.0625 41.371094 173.117188 41.371094 C 172.4375 41.371094 171.867188 41.449219 171.414062 41.609375 C 170.960938 41.769531 170.566406 41.949219 170.230469 42.148438 C 169.894531 42.34375 169.582031 42.523438 169.300781 42.683594 C 169.015625 42.84375 168.703125 42.921875 168.363281 42.921875 C 168.078125 42.921875 167.832031 42.847656 167.628906 42.699219 C 167.425781 42.550781 167.257812 42.371094 167.132812 42.15625 L 166.367188 40.808594 C 168.378906 38.964844 170.804688 38.046875 173.648438 38.046875 C 174.671875 38.046875 175.582031 38.214844 176.386719 38.550781 C 177.1875 38.882812 177.863281 39.351562 178.421875 39.949219 C 178.976562 40.542969 179.402344 41.257812 179.695312 42.085938 C 179.980469 42.914062 180.125 43.824219 180.125 44.8125 Z M 171.941406 53.238281 C 172.375 53.238281 172.773438 53.195312 173.136719 53.117188 C 173.5 53.039062 173.84375 52.917969 174.167969 52.757812 C 174.492188 52.601562 174.804688 52.40625 175.105469 52.171875 C 175.40625 51.9375 175.710938 51.664062 176.015625 51.34375 L 176.015625 48.394531 C 174.789062 48.453125 173.765625 48.558594 172.941406 48.710938 C 172.117188 48.863281 171.453125 49.058594 170.953125 49.296875 C 170.453125 49.535156 170.097656 49.816406 169.890625 50.132812 C 169.679688 50.453125 169.574219 50.796875 169.574219 51.171875 C 169.574219 51.914062 169.792969 52.441406 170.230469 52.757812 C 170.667969 53.078125 171.238281 53.238281 171.941406 53.238281 Z M 188.480469 55.863281 L 184.269531 55.863281 L 184.269531 38.371094 L 186.84375 38.371094 C 187.390625 38.371094 187.746094 38.625 187.917969 39.136719 L 188.207031 40.515625 C 188.558594 40.152344 188.933594 39.824219 189.328125 39.527344 C 189.71875 39.234375 190.132812 38.976562 190.570312 38.761719 C 191.007812 38.546875 191.476562 38.378906 191.976562 38.265625 C 192.476562 38.152344 193.023438 38.097656 193.613281 38.097656 C 194.566406 38.097656 195.414062 38.257812 196.152344 38.585938 C 196.890625 38.90625 197.507812 39.363281 198.003906 39.949219 C 198.5 40.53125 198.875 41.230469 199.128906 42.046875 C 199.386719 42.855469 199.511719 43.75 199.511719 44.730469 L 199.511719 55.863281 L 195.300781 55.863281 L 195.300781 44.730469 C 195.300781 43.660156 195.054688 42.835938 194.5625 42.25 C 194.066406 41.664062 193.324219 41.371094 192.335938 41.371094 C 191.605469 41.371094 190.925781 41.535156 190.289062 41.863281 C 189.652344 42.195312 189.050781 42.644531 188.480469 43.210938 Z M 227.421875 50.046875 C 227.671875 50.046875 227.890625 50.144531 228.070312 50.339844 L 229.878906 52.300781 C 228.878906 53.539062 227.648438 54.488281 226.1875 55.144531 C 224.726562 55.804688 222.972656 56.136719 220.925781 56.136719 C 219.097656 56.136719 217.453125 55.824219 215.992188 55.199219 C 214.53125 54.574219 213.28125 53.703125 212.25 52.589844 C 211.214844 51.476562 210.421875 50.144531 209.871094 48.597656 C 209.320312 47.054688 209.042969 45.367188 209.042969 43.535156 C 209.042969 41.683594 209.351562 39.988281 209.964844 38.449219 C 210.578125 36.90625 211.441406 35.578125 212.554688 34.464844 C 213.667969 33.351562 215.003906 32.484375 216.554688 31.867188 C 218.105469 31.246094 219.820312 30.933594 221.695312 30.933594 C 223.523438 30.933594 225.125 31.230469 226.496094 31.816406 C 227.863281 32.398438 229.039062 33.175781 230.015625 34.140625 L 228.480469 36.273438 C 228.390625 36.410156 228.273438 36.527344 228.132812 36.628906 C 227.988281 36.734375 227.792969 36.785156 227.542969 36.785156 C 227.28125 36.785156 227.015625 36.679688 226.742188 36.476562 C 226.46875 36.273438 226.121094 36.050781 225.699219 35.8125 C 225.28125 35.574219 224.75 35.351562 224.109375 35.148438 C 223.464844 34.941406 222.648438 34.839844 221.660156 34.839844 C 220.5 34.839844 219.4375 35.042969 218.464844 35.445312 C 217.492188 35.847656 216.65625 36.425781 215.957031 37.175781 C 215.257812 37.925781 214.714844 38.839844 214.320312 39.914062 C 213.929688 40.988281 213.730469 42.195312 213.730469 43.535156 C 213.730469 44.921875 213.929688 46.15625 214.320312 47.234375 C 214.714844 48.316406 215.242188 49.222656 215.914062 49.964844 C 216.585938 50.703125 217.375 51.269531 218.285156 51.660156 C 219.195312 52.050781 220.171875 52.246094 221.21875 52.246094 C 221.84375 52.246094 222.40625 52.214844 222.914062 52.144531 C 223.417969 52.078125 223.886719 51.96875 224.3125 51.820312 C 224.738281 51.675781 225.140625 51.484375 225.523438 51.253906 C 225.902344 51.019531 226.28125 50.730469 226.65625 50.390625 C 226.769531 50.289062 226.890625 50.207031 227.015625 50.144531 C 227.140625 50.082031 227.273438 50.046875 227.421875 50.046875 Z M 240.570312 38.097656 C 241.875 38.097656 243.0625 38.308594 244.125 38.726562 C 245.1875 39.148438 246.09375 39.746094 246.84375 40.515625 C 247.59375 41.289062 248.171875 42.234375 248.582031 43.347656 C 248.992188 44.460938 249.195312 45.707031 249.195312 47.082031 C 249.195312 48.46875 248.992188 49.71875 248.582031 50.832031 C 248.171875 51.945312 247.59375 52.894531 246.84375 53.679688 C 246.09375 54.464844 245.1875 55.066406 244.125 55.488281 C 243.0625 55.90625 241.875 56.117188 240.570312 56.117188 C 239.261719 56.117188 238.074219 55.90625 237.003906 55.488281 C 235.9375 55.066406 235.023438 54.464844 234.269531 53.679688 C 233.511719 52.894531 232.929688 51.945312 232.515625 50.832031 C 232.097656 49.71875 231.890625 48.46875 231.890625 47.082031 C 231.890625 45.707031 232.097656 44.460938 232.515625 43.347656 C 232.929688 42.234375 233.511719 41.289062 234.269531 40.515625 C 235.023438 39.746094 235.9375 39.148438 237.003906 38.726562 C 238.074219 38.308594 239.261719 38.097656 240.570312 38.097656 Z M 240.570312 52.878906 C 242.023438 52.878906 243.101562 52.390625 243.800781 51.414062 C 244.5 50.433594 244.847656 49.003906 244.847656 47.117188 C 244.847656 45.230469 244.5 43.792969 243.800781 42.800781 C 243.101562 41.8125 242.023438 41.320312 240.570312 41.320312 C 239.089844 41.320312 238 41.816406 237.296875 42.8125 C 236.589844 43.804688 236.238281 45.242188 236.238281 47.117188 C 236.238281 48.992188 236.589844 50.421875 237.296875 51.40625 C 238 52.386719 239.089844 52.878906 240.570312 52.878906 Z M 257.449219 55.863281 L 253.238281 55.863281 L 253.238281 41.539062 L 251.71875 41.300781 C 251.390625 41.246094 251.125 41.132812 250.929688 40.960938 C 250.726562 40.789062 250.628906 40.550781 250.628906 40.246094 L 250.628906 38.523438 L 253.238281 38.523438 L 253.238281 37.226562 C 253.238281 36.226562 253.386719 35.328125 253.691406 34.53125 C 253.992188 33.738281 254.421875 33.0625 254.984375 32.503906 C 255.546875 31.945312 256.230469 31.519531 257.039062 31.226562 C 257.847656 30.929688 258.753906 30.78125 259.765625 30.78125 C 260.574219 30.78125 261.324219 30.890625 262.019531 31.105469 L 261.933594 33.21875 C 261.910156 33.550781 261.757812 33.753906 261.472656 33.832031 C 261.1875 33.914062 260.859375 33.953125 260.484375 33.953125 C 259.984375 33.953125 259.539062 34.007812 259.144531 34.117188 C 258.753906 34.222656 258.421875 34.410156 258.148438 34.679688 C 257.875 34.945312 257.667969 35.296875 257.527344 35.738281 C 257.382812 36.171875 257.3125 36.714844 257.3125 37.363281 L 257.3125 38.523438 L 261.863281 38.523438 L 261.863281 41.523438 L 257.449219 41.523438 Z M 269.398438 55.863281 L 265.1875 55.863281 L 265.1875 41.539062 L 263.671875 41.300781 C 263.339844 41.246094 263.078125 41.132812 262.878906 40.960938 C 262.679688 40.789062 262.582031 40.550781 262.582031 40.246094 L 262.582031 38.523438 L 265.1875 38.523438 L 265.1875 37.226562 C 265.1875 36.226562 265.339844 35.328125 265.640625 34.53125 C 265.941406 33.738281 266.375 33.0625 266.9375 32.503906 C 267.5 31.945312 268.183594 31.519531 268.992188 31.226562 C 269.796875 30.929688 270.707031 30.78125 271.71875 30.78125 C 272.527344 30.78125 273.277344 30.890625 273.96875 31.105469 L 273.882812 33.21875 C 273.863281 33.550781 273.707031 33.753906 273.425781 33.832031 C 273.140625 33.914062 272.808594 33.953125 272.433594 33.953125 C 271.933594 33.953125 271.488281 34.007812 271.097656 34.117188 C 270.707031 34.222656 270.371094 34.410156 270.097656 34.679688 C 269.828125 34.945312 269.621094 35.296875 269.480469 35.738281 C 269.335938 36.171875 269.265625 36.714844 269.265625 37.363281 L 269.265625 38.523438 L 273.816406 38.523438 L 273.816406 41.523438 L 269.398438 41.523438 Z M 283.621094 38.097656 C 284.722656 38.097656 285.738281 38.273438 286.664062 38.625 C 287.589844 38.976562 288.386719 39.492188 289.058594 40.167969 C 289.730469 40.84375 290.253906 41.675781 290.628906 42.660156 C 291.003906 43.640625 291.191406 44.761719 291.191406 46.023438 C 291.191406 46.34375 291.175781 46.609375 291.148438 46.820312 C 291.121094 47.027344 291.070312 47.191406 290.996094 47.3125 C 290.921875 47.433594 290.820312 47.515625 290.695312 47.570312 C 290.570312 47.621094 290.410156 47.644531 290.21875 47.644531 L 279.410156 47.644531 C 279.535156 49.441406 280.015625 50.757812 280.859375 51.601562 C 281.699219 52.441406 282.8125 52.863281 284.199219 52.863281 C 284.882812 52.863281 285.46875 52.78125 285.964844 52.625 C 286.460938 52.464844 286.890625 52.289062 287.261719 52.09375 C 287.628906 51.902344 287.953125 51.726562 288.234375 51.566406 C 288.511719 51.40625 288.78125 51.328125 289.042969 51.328125 C 289.210938 51.328125 289.359375 51.363281 289.484375 51.429688 C 289.609375 51.496094 289.71875 51.59375 289.808594 51.71875 L 291.035156 53.253906 C 290.570312 53.800781 290.046875 54.257812 289.46875 54.628906 C 288.886719 54.996094 288.285156 55.292969 287.652344 55.515625 C 287.023438 55.734375 286.378906 55.890625 285.726562 55.980469 C 285.074219 56.074219 284.4375 56.117188 283.824219 56.117188 C 282.609375 56.117188 281.476562 55.917969 280.429688 55.515625 C 279.386719 55.109375 278.476562 54.511719 277.703125 53.722656 C 276.929688 52.933594 276.324219 51.957031 275.878906 50.792969 C 275.4375 49.625 275.214844 48.273438 275.214844 46.742188 C 275.214844 45.546875 275.40625 44.425781 275.792969 43.375 C 276.179688 42.324219 276.734375 41.40625 277.457031 40.628906 C 278.179688 39.851562 279.058594 39.234375 280.101562 38.777344 C 281.140625 38.324219 282.3125 38.097656 283.621094 38.097656 Z M 283.707031 41.113281 C 282.476562 41.113281 281.515625 41.460938 280.824219 42.15625 C 280.128906 42.847656 279.6875 43.832031 279.492188 45.105469 L 287.40625 45.105469 C 287.40625 44.558594 287.332031 44.042969 287.183594 43.5625 C 287.035156 43.078125 286.808594 42.65625 286.5 42.289062 C 286.195312 41.925781 285.808594 41.640625 285.34375 41.429688 C 284.875 41.21875 284.332031 41.113281 283.707031 41.113281 Z M 301.847656 38.097656 C 302.949219 38.097656 303.964844 38.273438 304.890625 38.625 C 305.816406 38.976562 306.613281 39.492188 307.285156 40.167969 C 307.957031 40.84375 308.480469 41.675781 308.855469 42.660156 C 309.230469 43.640625 309.417969 44.761719 309.417969 46.023438 C 309.417969 46.34375 309.402344 46.609375 309.375 46.820312 C 309.347656 47.027344 309.296875 47.191406 309.222656 47.3125 C 309.148438 47.433594 309.046875 47.515625 308.921875 47.570312 C 308.796875 47.621094 308.636719 47.644531 308.445312 47.644531 L 297.636719 47.644531 C 297.761719 49.441406 298.242188 50.757812 299.085938 51.601562 C 299.925781 52.441406 301.039062 52.863281 302.425781 52.863281 C 303.109375 52.863281 303.695312 52.78125 304.191406 52.625 C 304.6875 52.464844 305.117188 52.289062 305.488281 52.09375 C 305.855469 51.902344 306.179688 51.726562 306.460938 51.566406 C 306.738281 51.40625 307.007812 51.328125 307.269531 51.328125 C 307.4375 51.328125 307.585938 51.363281 307.710938 51.429688 C 307.835938 51.496094 307.945312 51.59375 308.035156 51.71875 L 309.261719 53.253906 C 308.796875 53.800781 308.273438 54.257812 307.695312 54.628906 C 307.113281 54.996094 306.511719 55.292969 305.878906 55.515625 C 305.25 55.734375 304.605469 55.890625 303.953125 55.980469 C 303.300781 56.074219 302.664062 56.117188 302.050781 56.117188 C 300.835938 56.117188 299.703125 55.917969 298.65625 55.515625 C 297.613281 55.109375 296.703125 54.511719 295.929688 53.722656 C 295.15625 52.933594 294.550781 51.957031 294.105469 50.792969 C 293.664062 49.625 293.441406 48.273438 293.441406 46.742188 C 293.441406 45.546875 293.632812 44.425781 294.019531 43.375 C 294.40625 42.324219 294.960938 41.40625 295.683594 40.628906 C 296.40625 39.851562 297.285156 39.234375 298.328125 38.777344 C 299.367188 38.324219 300.539062 38.097656 301.847656 38.097656 Z M 301.929688 41.113281 C 300.703125 41.113281 299.742188 41.460938 299.050781 42.15625 C 298.355469 42.847656 297.914062 43.832031 297.71875 45.105469 L 305.632812 45.105469 C 305.632812 44.558594 305.558594 44.042969 305.410156 43.5625 C 305.261719 43.078125 305.035156 42.65625 304.726562 42.289062 C 304.421875 41.925781 304.035156 41.640625 303.570312 41.429688 C 303.101562 41.21875 302.558594 41.113281 301.929688 41.113281 Z M 301.929688 41.113281" stroke-linecap="round"/>
</g>
<g transform="matrix(2.666 0 0 2.666 499.0077 852.8619)" id="surface1">
<path style="stroke: rgb(255,255,255); stroke-width: 1; stroke-dasharray: none; stroke-linecap: butt; stroke-dashoffset: 0; stroke-linejoin: miter; stroke-miterlimit: 4; is-custom-font: none; font-file-url: none; fill: rgb(255,255,255); fill-rule: nonzero; opacity: 1;" transform=" translate(-170.125, -302.8535)" d="M 133.125 297.320312 L 132.679688 298.199219 C 132.621094 298.296875 132.5625 298.367188 132.5 298.414062 C 132.433594 298.460938 132.351562 298.488281 132.25 298.488281 C 132.140625 298.488281 132.015625 298.433594 131.871094 298.324219 C 131.726562 298.214844 131.546875 298.097656 131.328125 297.964844 C 131.109375 297.835938 130.84375 297.714844 130.535156 297.605469 C 130.226562 297.5 129.851562 297.445312 129.414062 297.445312 C 129 297.445312 128.632812 297.503906 128.316406 297.613281 C 127.996094 297.726562 127.730469 297.875 127.515625 298.066406 C 127.304688 298.257812 127.144531 298.480469 127.035156 298.738281 C 126.925781 298.996094 126.871094 299.277344 126.871094 299.574219 C 126.871094 299.957031 126.96875 300.273438 127.15625 300.527344 C 127.34375 300.777344 127.59375 300.992188 127.898438 301.171875 C 128.207031 301.347656 128.558594 301.5 128.949219 301.632812 C 129.34375 301.761719 129.742188 301.898438 130.152344 302.039062 C 130.5625 302.179688 130.964844 302.335938 131.355469 302.511719 C 131.746094 302.683594 132.097656 302.90625 132.40625 303.175781 C 132.714844 303.441406 132.964844 303.769531 133.148438 304.15625 C 133.339844 304.546875 133.433594 305.023438 133.433594 305.589844 C 133.433594 306.1875 133.332031 306.75 133.125 307.273438 C 132.925781 307.800781 132.628906 308.257812 132.238281 308.644531 C 131.84375 309.035156 131.363281 309.339844 130.792969 309.5625 C 130.222656 309.785156 129.574219 309.894531 128.851562 309.894531 C 127.964844 309.894531 127.160156 309.734375 126.429688 309.414062 C 125.703125 309.09375 125.078125 308.65625 124.5625 308.109375 L 125.097656 307.234375 C 125.148438 307.164062 125.210938 307.101562 125.285156 307.054688 C 125.355469 307.007812 125.4375 306.984375 125.527344 306.984375 C 125.660156 306.984375 125.8125 307.054688 125.984375 307.199219 C 126.160156 307.34375 126.375 307.5 126.628906 307.671875 C 126.886719 307.84375 127.199219 308 127.566406 308.144531 C 127.929688 308.285156 128.378906 308.359375 128.910156 308.359375 C 129.347656 308.359375 129.738281 308.296875 130.082031 308.175781 C 130.425781 308.058594 130.714844 307.886719 130.953125 307.667969 C 131.191406 307.449219 131.375 307.183594 131.503906 306.878906 C 131.628906 306.574219 131.695312 306.234375 131.695312 305.859375 C 131.695312 305.445312 131.601562 305.105469 131.414062 304.839844 C 131.226562 304.574219 130.980469 304.355469 130.675781 304.175781 C 130.367188 304 130.019531 303.847656 129.628906 303.722656 C 129.238281 303.597656 128.835938 303.472656 128.425781 303.34375 C 128.015625 303.210938 127.613281 303.058594 127.222656 302.890625 C 126.832031 302.714844 126.480469 302.492188 126.175781 302.21875 C 125.871094 301.945312 125.625 301.601562 125.4375 301.195312 C 125.25 300.78125 125.152344 300.273438 125.152344 299.667969 C 125.152344 299.183594 125.25 298.71875 125.4375 298.269531 C 125.625 297.816406 125.898438 297.414062 126.25 297.0625 C 126.609375 296.714844 127.050781 296.433594 127.574219 296.222656 C 128.101562 296.011719 128.703125 295.910156 129.386719 295.910156 C 130.148438 295.910156 130.847656 296.027344 131.476562 296.269531 C 132.105469 296.511719 132.65625 296.863281 133.125 297.320312 Z M 135.714844 300.070312 L 137.417969 300.070312 L 137.417969 309.742188 L 135.714844 309.742188 Z M 137.796875 297.035156 C 137.796875 297.199219 137.765625 297.355469 137.695312 297.496094 C 137.628906 297.640625 137.542969 297.769531 137.429688 297.878906 C 137.320312 297.992188 137.1875 298.078125 137.042969 298.140625 C 136.894531 298.207031 136.738281 298.238281 136.574219 298.238281 C 136.40625 298.238281 136.253906 298.207031 136.109375 298.140625 C 135.96875 298.078125 135.839844 297.992188 135.726562 297.878906 C 135.617188 297.769531 135.53125 297.640625 135.464844 297.496094 C 135.402344 297.355469 135.371094 297.199219 135.371094 297.035156 C 135.371094 296.871094 135.402344 296.714844 135.464844 296.5625 C 135.53125 296.414062 135.617188 296.28125 135.726562 296.171875 C 135.839844 296.058594 135.96875 295.972656 136.109375 295.910156 C 136.253906 295.84375 136.40625 295.8125 136.574219 295.8125 C 136.738281 295.8125 136.894531 295.84375 137.042969 295.910156 C 137.1875 295.972656 137.320312 296.058594 137.429688 296.171875 C 137.542969 296.28125 137.628906 296.414062 137.695312 296.5625 C 137.765625 296.714844 137.796875 296.871094 137.796875 297.035156 Z M 142.113281 309.742188 L 140.414062 309.742188 L 140.414062 300.070312 L 141.425781 300.070312 C 141.667969 300.070312 141.820312 300.1875 141.882812 300.421875 L 142.015625 301.472656 C 142.4375 301.011719 142.90625 300.632812 143.425781 300.347656 C 143.941406 300.0625 144.542969 299.917969 145.226562 299.917969 C 145.753906 299.917969 146.21875 300.007812 146.625 300.179688 C 147.027344 300.355469 147.367188 300.605469 147.636719 300.925781 C 147.90625 301.246094 148.113281 301.636719 148.253906 302.085938 C 148.390625 302.539062 148.460938 303.035156 148.460938 303.585938 L 148.460938 309.742188 L 146.761719 309.742188 L 146.761719 303.585938 C 146.761719 302.851562 146.597656 302.285156 146.261719 301.878906 C 145.925781 301.476562 145.417969 301.277344 144.726562 301.277344 C 144.226562 301.277344 143.753906 301.394531 143.320312 301.636719 C 142.882812 301.878906 142.480469 302.207031 142.113281 302.621094 Z M 158.078125 301.179688 L 157.628906 301.789062 C 157.578125 301.859375 157.527344 301.914062 157.472656 301.949219 C 157.421875 301.988281 157.351562 302.007812 157.253906 302.007812 C 157.160156 302.007812 157.058594 301.96875 156.945312 301.890625 C 156.832031 301.808594 156.691406 301.722656 156.519531 301.628906 C 156.347656 301.53125 156.140625 301.445312 155.894531 301.363281 C 155.648438 301.285156 155.347656 301.246094 154.992188 301.246094 C 154.519531 301.246094 154.105469 301.328125 153.742188 301.496094 C 153.378906 301.667969 153.074219 301.914062 152.828125 302.230469 C 152.582031 302.546875 152.398438 302.933594 152.277344 303.382812 C 152.152344 303.835938 152.089844 304.34375 152.089844 304.902344 C 152.089844 305.488281 152.15625 306.007812 152.289062 306.460938 C 152.425781 306.917969 152.613281 307.300781 152.851562 307.609375 C 153.097656 307.917969 153.390625 308.152344 153.738281 308.316406 C 154.085938 308.480469 154.472656 308.558594 154.90625 308.558594 C 155.320312 308.558594 155.660156 308.511719 155.929688 308.414062 C 156.195312 308.3125 156.417969 308.203125 156.597656 308.082031 C 156.773438 307.960938 156.921875 307.851562 157.039062 307.75 C 157.152344 307.652344 157.265625 307.605469 157.378906 307.605469 C 157.527344 307.605469 157.636719 307.660156 157.707031 307.769531 L 158.183594 308.390625 C 157.761719 308.902344 157.238281 309.277344 156.609375 309.519531 C 155.976562 309.757812 155.308594 309.875 154.609375 309.875 C 154.003906 309.875 153.441406 309.765625 152.925781 309.542969 C 152.40625 309.320312 151.957031 308.996094 151.574219 308.574219 C 151.191406 308.148438 150.890625 307.628906 150.671875 307.011719 C 150.453125 306.394531 150.34375 305.691406 150.34375 304.902344 C 150.34375 304.183594 150.445312 303.515625 150.644531 302.90625 C 150.84375 302.296875 151.136719 301.769531 151.523438 301.328125 C 151.90625 300.882812 152.382812 300.539062 152.949219 300.289062 C 153.515625 300.042969 154.164062 299.917969 154.894531 299.917969 C 155.570312 299.917969 156.171875 300.027344 156.691406 300.25 C 157.214844 300.46875 157.675781 300.777344 158.078125 301.179688 Z M 163.777344 299.917969 C 164.355469 299.917969 164.890625 300.015625 165.382812 300.207031 C 165.871094 300.402344 166.292969 300.683594 166.648438 301.050781 C 167.007812 301.417969 167.285156 301.867188 167.484375 302.40625 C 167.6875 302.941406 167.785156 303.554688 167.785156 304.242188 C 167.785156 304.511719 167.757812 304.6875 167.699219 304.777344 C 167.644531 304.867188 167.535156 304.910156 167.375 304.910156 L 160.941406 304.910156 C 160.953125 305.523438 161.035156 306.054688 161.191406 306.507812 C 161.34375 306.960938 161.550781 307.335938 161.816406 307.640625 C 162.085938 307.941406 162.40625 308.167969 162.773438 308.316406 C 163.144531 308.464844 163.558594 308.539062 164.015625 308.539062 C 164.441406 308.539062 164.808594 308.488281 165.117188 308.390625 C 165.429688 308.292969 165.695312 308.1875 165.917969 308.070312 C 166.140625 307.957031 166.324219 307.851562 166.472656 307.75 C 166.621094 307.652344 166.753906 307.605469 166.863281 307.605469 C 167 307.605469 167.109375 307.660156 167.183594 307.769531 L 167.664062 308.390625 C 167.453125 308.644531 167.203125 308.863281 166.910156 309.050781 C 166.617188 309.238281 166.300781 309.394531 165.96875 309.515625 C 165.632812 309.636719 165.289062 309.726562 164.929688 309.789062 C 164.574219 309.847656 164.222656 309.875 163.871094 309.875 C 163.203125 309.875 162.585938 309.761719 162.027344 309.539062 C 161.460938 309.3125 160.976562 308.980469 160.5625 308.546875 C 160.152344 308.109375 159.835938 307.570312 159.605469 306.925781 C 159.375 306.28125 159.261719 305.546875 159.261719 304.714844 C 159.261719 304.039062 159.363281 303.40625 159.570312 302.820312 C 159.777344 302.234375 160.074219 301.730469 160.464844 301.300781 C 160.851562 300.871094 161.328125 300.53125 161.886719 300.285156 C 162.445312 300.042969 163.074219 299.917969 163.777344 299.917969 Z M 163.816406 301.171875 C 162.992188 301.171875 162.347656 301.40625 161.875 301.878906 C 161.40625 302.355469 161.113281 303.011719 161 303.855469 L 166.257812 303.855469 C 166.257812 303.457031 166.203125 303.097656 166.097656 302.769531 C 165.988281 302.441406 165.828125 302.160156 165.621094 301.921875 C 165.410156 301.679688 165.152344 301.496094 164.851562 301.363281 C 164.546875 301.234375 164.203125 301.171875 163.816406 301.171875 Z M 177.984375 295.910156 C 178.566406 295.910156 179.105469 295.996094 179.609375 296.167969 C 180.109375 296.339844 180.542969 296.585938 180.910156 296.914062 C 181.277344 297.242188 181.5625 297.644531 181.773438 298.113281 C 181.984375 298.585938 182.089844 299.121094 182.089844 299.71875 C 182.089844 300.226562 182.015625 300.699219 181.863281 301.132812 C 181.707031 301.566406 181.5 301.980469 181.242188 302.378906 C 180.980469 302.773438 180.679688 303.160156 180.335938 303.53125 C 179.996094 303.90625 179.636719 304.285156 179.253906 304.671875 L 175.65625 308.359375 C 175.910156 308.289062 176.167969 308.230469 176.425781 308.191406 C 176.6875 308.148438 176.941406 308.128906 177.183594 308.128906 L 181.765625 308.128906 C 181.949219 308.128906 182.097656 308.183594 182.203125 308.292969 C 182.3125 308.398438 182.367188 308.539062 182.367188 308.714844 L 182.367188 309.742188 L 173.238281 309.742188 L 173.238281 309.160156 C 173.238281 309.039062 173.261719 308.914062 173.308594 308.789062 C 173.359375 308.660156 173.4375 308.542969 173.546875 308.4375 L 177.925781 304.035156 C 178.289062 303.664062 178.621094 303.308594 178.917969 302.96875 C 179.21875 302.628906 179.476562 302.289062 179.691406 301.945312 C 179.902344 301.597656 180.066406 301.25 180.179688 300.898438 C 180.292969 300.542969 180.351562 300.167969 180.351562 299.765625 C 180.351562 299.363281 180.289062 299.015625 180.160156 298.710938 C 180.035156 298.410156 179.859375 298.160156 179.636719 297.960938 C 179.414062 297.761719 179.152344 297.617188 178.855469 297.519531 C 178.554688 297.417969 178.234375 297.367188 177.890625 297.367188 C 177.546875 297.367188 177.226562 297.417969 176.933594 297.519531 C 176.640625 297.625 176.382812 297.765625 176.15625 297.949219 C 175.929688 298.128906 175.738281 298.34375 175.585938 298.59375 C 175.425781 298.839844 175.316406 299.113281 175.253906 299.414062 C 175.203125 299.597656 175.128906 299.730469 175.023438 299.8125 C 174.921875 299.898438 174.789062 299.9375 174.621094 299.9375 C 174.589844 299.9375 174.558594 299.9375 174.523438 299.933594 C 174.488281 299.929688 174.449219 299.925781 174.40625 299.917969 L 173.515625 299.765625 C 173.605469 299.140625 173.777344 298.589844 174.03125 298.109375 C 174.289062 297.628906 174.609375 297.226562 175 296.902344 C 175.390625 296.574219 175.839844 296.328125 176.347656 296.160156 C 176.851562 295.992188 177.398438 295.910156 177.984375 295.910156 Z M 193.824219 302.90625 C 193.824219 304.105469 193.695312 305.140625 193.4375 306.015625 C 193.179688 306.890625 192.828125 307.613281 192.382812 308.1875 C 191.9375 308.761719 191.410156 309.1875 190.804688 309.464844 C 190.195312 309.746094 189.542969 309.886719 188.847656 309.886719 C 188.148438 309.886719 187.5 309.746094 186.898438 309.464844 C 186.296875 309.1875 185.773438 308.761719 185.328125 308.1875 C 184.882812 307.613281 184.53125 306.890625 184.277344 306.015625 C 184.023438 305.140625 183.894531 304.105469 183.894531 302.90625 C 183.894531 301.710938 184.023438 300.671875 184.277344 299.796875 C 184.53125 298.917969 184.882812 298.1875 185.328125 297.613281 C 185.773438 297.035156 186.296875 296.609375 186.898438 296.328125 C 187.5 296.046875 188.148438 295.910156 188.847656 295.910156 C 189.542969 295.910156 190.195312 296.046875 190.804688 296.328125 C 191.410156 296.609375 191.9375 297.035156 192.382812 297.613281 C 192.828125 298.1875 193.179688 298.917969 193.4375 299.796875 C 193.695312 300.671875 193.824219 301.710938 193.824219 302.90625 Z M 192.058594 302.90625 C 192.058594 301.863281 191.96875 300.984375 191.796875 300.277344 C 191.621094 299.566406 191.386719 298.996094 191.089844 298.5625 C 190.792969 298.128906 190.453125 297.820312 190.0625 297.628906 C 189.675781 297.445312 189.269531 297.351562 188.847656 297.351562 C 188.429688 297.351562 188.023438 297.445312 187.636719 297.628906 C 187.25 297.820312 186.910156 298.128906 186.617188 298.5625 C 186.324219 298.996094 186.089844 299.566406 185.914062 300.277344 C 185.738281 300.984375 185.652344 301.863281 185.652344 302.90625 C 185.652344 303.953125 185.738281 304.828125 185.914062 305.53125 C 186.089844 306.238281 186.324219 306.808594 186.617188 307.242188 C 186.910156 307.675781 187.25 307.984375 187.636719 308.175781 C 188.023438 308.359375 188.429688 308.453125 188.847656 308.453125 C 189.269531 308.453125 189.675781 308.359375 190.0625 308.175781 C 190.453125 307.984375 190.792969 307.675781 191.089844 307.242188 C 191.386719 306.808594 191.621094 306.238281 191.796875 305.53125 C 191.96875 304.828125 192.058594 303.953125 192.058594 302.90625 Z M 200.136719 295.910156 C 200.714844 295.910156 201.257812 295.996094 201.757812 296.167969 C 202.261719 296.339844 202.695312 296.585938 203.0625 296.914062 C 203.429688 297.242188 203.714844 297.644531 203.925781 298.113281 C 204.136719 298.585938 204.242188 299.121094 204.242188 299.71875 C 204.242188 300.226562 204.164062 300.699219 204.011719 301.132812 C 203.859375 301.566406 203.652344 301.980469 203.394531 302.378906 C 203.132812 302.773438 202.832031 303.160156 202.488281 303.53125 C 202.148438 303.90625 201.785156 304.285156 201.40625 304.671875 L 197.808594 308.359375 C 198.0625 308.289062 198.320312 308.230469 198.578125 308.191406 C 198.839844 308.148438 199.089844 308.128906 199.335938 308.128906 L 203.917969 308.128906 C 204.101562 308.128906 204.246094 308.183594 204.355469 308.292969 C 204.464844 308.398438 204.519531 308.539062 204.519531 308.714844 L 204.519531 309.742188 L 195.390625 309.742188 L 195.390625 309.160156 C 195.390625 309.039062 195.414062 308.914062 195.460938 308.789062 C 195.507812 308.660156 195.585938 308.542969 195.695312 308.4375 L 200.078125 304.035156 C 200.441406 303.664062 200.773438 303.308594 201.070312 302.96875 C 201.371094 302.628906 201.628906 302.289062 201.839844 301.945312 C 202.050781 301.597656 202.214844 301.25 202.332031 300.898438 C 202.445312 300.542969 202.503906 300.167969 202.503906 299.765625 C 202.503906 299.363281 202.4375 299.015625 202.3125 298.710938 C 202.183594 298.410156 202.007812 298.160156 201.785156 297.960938 C 201.5625 297.761719 201.304688 297.617188 201.007812 297.519531 C 200.707031 297.417969 200.382812 297.367188 200.039062 297.367188 C 199.699219 297.367188 199.378906 297.417969 199.085938 297.519531 C 198.792969 297.625 198.535156 297.765625 198.308594 297.949219 C 198.082031 298.128906 197.890625 298.34375 197.734375 298.59375 C 197.578125 298.839844 197.46875 299.113281 197.40625 299.414062 C 197.355469 299.597656 197.277344 299.730469 197.175781 299.8125 C 197.074219 299.898438 196.941406 299.9375 196.773438 299.9375 C 196.742188 299.9375 196.710938 299.9375 196.675781 299.933594 C 196.640625 299.929688 196.597656 299.925781 196.554688 299.917969 L 195.664062 299.765625 C 195.757812 299.140625 195.929688 298.589844 196.183594 298.109375 C 196.4375 297.628906 196.761719 297.226562 197.152344 296.902344 C 197.542969 296.574219 197.992188 296.328125 198.5 296.160156 C 199.003906 295.992188 199.550781 295.910156 200.136719 295.910156 Z M 211.394531 295.910156 C 211.972656 295.910156 212.507812 295.992188 212.996094 296.15625 C 213.488281 296.324219 213.90625 296.558594 214.261719 296.863281 C 214.613281 297.167969 214.890625 297.539062 215.089844 297.972656 C 215.285156 298.402344 215.382812 298.882812 215.382812 299.414062 C 215.382812 299.847656 215.328125 300.230469 215.214844 300.574219 C 215.105469 300.914062 214.945312 301.214844 214.738281 301.46875 C 214.53125 301.726562 214.28125 301.945312 213.992188 302.125 C 213.699219 302.300781 213.371094 302.445312 213.003906 302.554688 C 213.898438 302.789062 214.566406 303.183594 215.015625 303.738281 C 215.464844 304.292969 215.6875 304.984375 215.6875 305.816406 C 215.6875 306.449219 215.570312 307.015625 215.332031 307.519531 C 215.09375 308.023438 214.765625 308.449219 214.351562 308.800781 C 213.9375 309.15625 213.457031 309.425781 212.90625 309.613281 C 212.355469 309.800781 211.765625 309.894531 211.132812 309.894531 C 210.410156 309.894531 209.789062 309.804688 209.273438 309.625 C 208.757812 309.441406 208.324219 309.191406 207.964844 308.875 C 207.609375 308.554688 207.316406 308.179688 207.085938 307.746094 C 206.855469 307.308594 206.660156 306.835938 206.503906 306.324219 L 207.230469 306.019531 C 207.363281 305.960938 207.496094 305.933594 207.632812 305.933594 C 207.757812 305.933594 207.871094 305.960938 207.96875 306.015625 C 208.070312 306.070312 208.144531 306.15625 208.195312 306.269531 C 208.207031 306.292969 208.21875 306.320312 208.230469 306.351562 C 208.246094 306.378906 208.257812 306.40625 208.269531 306.4375 C 208.359375 306.625 208.46875 306.835938 208.597656 307.066406 C 208.722656 307.296875 208.894531 307.515625 209.113281 307.71875 C 209.328125 307.921875 209.59375 308.09375 209.917969 308.234375 C 210.238281 308.375 210.640625 308.445312 211.117188 308.445312 C 211.59375 308.445312 212.011719 308.367188 212.371094 308.210938 C 212.730469 308.054688 213.03125 307.851562 213.269531 307.605469 C 213.507812 307.355469 213.6875 307.078125 213.808594 306.773438 C 213.929688 306.46875 213.992188 306.164062 213.992188 305.867188 C 213.992188 305.496094 213.941406 305.160156 213.839844 304.855469 C 213.742188 304.550781 213.566406 304.285156 213.304688 304.0625 C 213.050781 303.839844 212.691406 303.664062 212.238281 303.535156 C 211.785156 303.410156 211.199219 303.34375 210.484375 303.34375 L 210.484375 302.113281 C 211.066406 302.109375 211.558594 302.042969 211.96875 301.921875 C 212.378906 301.804688 212.71875 301.636719 212.976562 301.425781 C 213.238281 301.214844 213.429688 300.964844 213.542969 300.671875 C 213.664062 300.378906 213.722656 300.054688 213.722656 299.699219 C 213.722656 299.304688 213.660156 298.960938 213.539062 298.667969 C 213.414062 298.375 213.242188 298.132812 213.027344 297.941406 C 212.808594 297.75 212.554688 297.605469 212.253906 297.511719 C 211.960938 297.414062 211.640625 297.367188 211.296875 297.367188 C 210.953125 297.367188 210.636719 297.417969 210.34375 297.519531 C 210.050781 297.625 209.789062 297.765625 209.566406 297.949219 C 209.335938 298.128906 209.148438 298.34375 208.996094 298.59375 C 208.84375 298.847656 208.726562 299.121094 208.652344 299.414062 C 208.601562 299.597656 208.523438 299.730469 208.421875 299.8125 C 208.320312 299.898438 208.191406 299.9375 208.03125 299.9375 C 208 299.9375 207.964844 299.9375 207.929688 299.933594 C 207.898438 299.929688 207.859375 299.925781 207.8125 299.917969 L 206.925781 299.765625 C 207.015625 299.140625 207.1875 298.589844 207.441406 298.109375 C 207.695312 297.628906 208.019531 297.226562 208.410156 296.902344 C 208.800781 296.574219 209.25 296.328125 209.757812 296.160156 C 210.261719 295.992188 210.804688 295.910156 211.394531 295.910156 Z M 211.394531 295.910156" stroke-linecap="round"/>
</g>
<g transform="matrix(2.666 0 0 2.666 500.0127 524.1421)" id="surface1">
<path style="stroke: rgb(255,255,255); stroke-width: 1; stroke-dasharray: none; stroke-linecap: butt; stroke-dashoffset: 0; stroke-linejoin: miter; stroke-miterlimit: 4; is-custom-font: none; font-file-url: none; fill: rgb(255,255,255); fill-rule: nonzero; opacity: 1;" transform=" translate(-170.502, -179.5527)" d="M 236.164062 87.832031 L 235.660156 87.832031 C 234.21875 80.359375 227.632812 74.699219 219.75 74.699219 L 121.257812 74.699219 C 113.371094 74.699219 106.785156 80.359375 105.34375 87.832031 L 104.839844 87.832031 C 99.523438 87.832031 95.195312 92.15625 95.195312 97.476562 C 95.195312 102.792969 99.523438 107.117188 104.839844 107.117188 L 105.226562 107.117188 L 107.316406 141.96875 C 107.191406 142.078125 107.070312 142.1875 106.953125 142.308594 C 105.742188 143.566406 105.113281 145.222656 105.179688 146.964844 L 108.207031 225.769531 C 108.316406 228.542969 110.171875 230.832031 112.695312 231.597656 L 114.53125 262.207031 C 114.777344 266.359375 117.644531 269.773438 121.460938 270.886719 L 121.460938 274.761719 C 121.460938 280.078125 125.789062 284.40625 131.105469 284.40625 L 209.898438 284.40625 C 215.21875 284.40625 219.542969 280.078125 219.542969 274.761719 L 219.542969 270.886719 C 223.359375 269.773438 226.226562 266.359375 226.472656 262.207031 L 228.3125 231.597656 C 230.832031 230.832031 232.6875 228.542969 232.800781 225.765625 L 235.824219 146.964844 C 235.894531 145.21875 235.261719 143.566406 234.050781 142.308594 C 233.9375 142.1875 233.8125 142.078125 233.6875 141.96875 L 235.78125 107.117188 L 236.164062 107.117188 C 241.480469 107.117188 245.808594 102.792969 245.808594 97.476562 C 245.808594 92.15625 241.480469 87.832031 236.164062 87.832031 Z M 121.257812 80.855469 L 219.75 80.855469 C 224.21875 80.855469 228.015625 83.789062 229.320312 87.832031 L 111.683594 87.832031 C 112.988281 83.789062 116.785156 80.855469 121.257812 80.855469 Z M 229.46875 146.515625 C 229.492188 146.515625 229.558594 146.515625 229.617188 146.578125 C 229.679688 146.640625 229.675781 146.707031 229.675781 146.730469 L 228.28125 183.039062 L 213.183594 183.039062 C 211.484375 183.039062 210.105469 184.417969 210.105469 186.117188 C 210.105469 187.816406 211.484375 189.195312 213.183594 189.195312 L 228.042969 189.195312 L 226.648438 225.523438 C 226.644531 225.632812 226.554688 225.71875 226.441406 225.71875 L 114.5625 225.71875 C 114.449219 225.71875 114.359375 225.632812 114.355469 225.527344 L 112.960938 189.195312 L 127.820312 189.195312 C 129.523438 189.195312 130.898438 187.816406 130.898438 186.117188 C 130.898438 184.417969 129.523438 183.039062 127.820312 183.039062 L 112.722656 183.039062 L 111.328125 146.730469 C 111.328125 146.707031 111.328125 146.640625 111.386719 146.578125 C 111.449219 146.515625 111.511719 146.515625 111.535156 146.515625 Z M 127.617188 274.761719 L 127.617188 271.273438 L 134.59375 271.273438 L 134.59375 278.25 L 131.105469 278.25 C 129.183594 278.25 127.617188 276.683594 127.617188 274.761719 Z M 147.726562 271.273438 L 147.726562 278.25 L 140.75 278.25 L 140.75 271.273438 Z M 160.859375 271.273438 L 160.859375 278.25 L 153.882812 278.25 L 153.882812 271.273438 Z M 173.992188 271.273438 L 173.992188 278.25 L 167.015625 278.25 L 167.015625 271.273438 Z M 187.121094 271.273438 L 187.121094 278.25 L 180.144531 278.25 L 180.144531 271.273438 Z M 200.253906 271.273438 L 200.253906 278.25 L 193.277344 278.25 L 193.277344 271.273438 Z M 209.898438 278.25 L 206.410156 278.25 L 206.410156 271.273438 L 213.386719 271.273438 L 213.386719 274.761719 C 213.386719 276.683594 211.824219 278.25 209.898438 278.25 Z M 216.847656 265.117188 L 124.15625 265.117188 C 122.316406 265.117188 120.785156 263.675781 120.675781 261.839844 L 118.875 231.875 L 222.128906 231.875 L 220.328125 261.839844 C 220.21875 263.675781 218.691406 265.117188 216.847656 265.117188 Z M 227.617188 140.359375 L 113.386719 140.359375 L 111.390625 107.117188 L 229.613281 107.117188 Z M 236.164062 100.964844 L 104.839844 100.964844 C 102.917969 100.964844 101.351562 99.398438 101.351562 97.476562 C 101.351562 95.550781 102.917969 93.988281 104.839844 93.988281 L 236.164062 93.988281 C 238.085938 93.988281 239.652344 95.550781 239.652344 97.476562 C 239.652344 99.398438 238.085938 100.964844 236.164062 100.964844 Z M 236.164062 100.964844" stroke-linecap="round"/>
</g>
<g transform="matrix(2.666 0 0 2.666 500.0074 541.6376)" id="surface1">
<path style="stroke: rgb(255,255,255); stroke-width: 1; stroke-dasharray: none; stroke-linecap: butt; stroke-dashoffset: 0; stroke-linejoin: miter; stroke-miterlimit: 4; is-custom-font: none; font-file-url: none; fill: rgb(255,255,255); fill-rule: nonzero; opacity: 1;" transform=" translate(-170.5, -186.1152)" d="M 140.953125 189.195312 L 147.9375 189.195312 C 149.445312 200.300781 158.988281 208.890625 170.5 208.890625 C 182.015625 208.890625 191.554688 200.300781 193.0625 189.195312 L 200.046875 189.195312 C 201.75 189.195312 203.125 187.816406 203.125 186.117188 C 203.125 184.417969 201.75 183.039062 200.046875 183.039062 L 193.0625 183.039062 C 191.554688 171.929688 182.015625 163.339844 170.5 163.339844 C 158.988281 163.339844 149.445312 171.929688 147.9375 183.039062 L 140.953125 183.039062 C 139.253906 183.039062 137.875 184.417969 137.875 186.117188 C 137.875 187.816406 139.253906 189.195312 140.953125 189.195312 Z M 170.5 202.738281 C 162.386719 202.738281 155.617188 196.890625 154.171875 189.195312 L 186.832031 189.195312 C 185.382812 196.890625 178.613281 202.738281 170.5 202.738281 Z M 170.5 169.496094 C 178.613281 169.496094 185.382812 175.339844 186.832031 183.039062 L 154.171875 183.039062 C 155.617188 175.339844 162.386719 169.496094 170.5 169.496094 Z M 170.5 169.496094" stroke-linecap="round"/>
</g>
</svg>